HIERARCHY
ROOT Hips
{
	OFFSET -339.306915 540.749023 89.171944
	CHANNELS 6 Xposition Yposition Zposition Zrotation Yrotation Xrotation
	JOINT Spine
	{
		OFFSET 0.000000 2.080078 8.814247
		CHANNELS 6 Xposition Yposition Zposition Zrotation Yrotation Xrotation
		JOINT Spine1
		{
			OFFSET 0.000000 0.000000 8.844139
			CHANNELS 6 Xposition Yposition Zposition Zrotation Yrotation Xrotation
			JOINT Spine2
			{
				OFFSET 0.000000 0.000000 11.682266
				CHANNELS 6 Xposition Yposition Zposition Zrotation Yrotation Xrotation
				JOINT Spine3
				{
					OFFSET 0.000000 0.000000 11.746696
					CHANNELS 6 Xposition Yposition Zposition Zrotation Yrotation Xrotation
					JOINT Neck
					{
						OFFSET 0.000000 0.000000 17.658264
						CHANNELS 6 Xposition Yposition Zposition Zrotation Yrotation Xrotation
						JOINT Neck1
						{
							OFFSET 0.000000 0.000000 5.101517
							CHANNELS 6 Xposition Yposition Zposition Zrotation Yrotation Xrotation
							JOINT Head
							{
								OFFSET 0.000000 0.000000 5.101517
								CHANNELS 6 Xposition Yposition Zposition Zrotation Yrotation Xrotation
								JOINT HeadEnd
								{
									OFFSET 0.000000 0.000000 11.655090
									CHANNELS 6 Xposition Yposition Zposition Zrotation Yrotation Xrotation
									End Site
									{
										OFFSET 0.000000 0.000000 0.100006
									}
								}
							}
						}
					}
					JOINT RightShoulder
					{
						OFFSET -2.625397 0.000000 11.175217
						CHANNELS 6 Xposition Yposition Zposition Zrotation Yrotation Xrotation
						JOINT RightArm
						{
							OFFSET 0.000000 0.000000 10.434708
							CHANNELS 6 Xposition Yposition Zposition Zrotation Yrotation Xrotation
							JOINT RightForeArm
							{
								OFFSET 0.000000 0.000000 29.628418
								CHANNELS 6 Xposition Yposition Zposition Zrotation Yrotation Xrotation
								JOINT RightHand
								{
									OFFSET 0.000000 0.000000 22.857605
									CHANNELS 6 Xposition Yposition Zposition Zrotation Yrotation Xrotation
									JOINT RightHandThumb1
									{
										OFFSET -2.867310 -2.944275 3.959564
										CHANNELS 6 Xposition Yposition Zposition Zrotation Yrotation Xrotation
										JOINT RightHandThumb2
										{
											OFFSET 0.000000 0.000000 3.350403
											CHANNELS 6 Xposition Yposition Zposition Zrotation Yrotation Xrotation
											JOINT RightHandThumb3
											{
												OFFSET 0.000000 0.000000 3.756516
												CHANNELS 6 Xposition Yposition Zposition Zrotation Yrotation Xrotation
												JOINT RightHandThumb4
												{
													OFFSET 0.000000 0.000000 3.147339
													CHANNELS 6 Xposition Yposition Zposition Zrotation Yrotation Xrotation
													End Site
													{
														OFFSET 0.000000 0.000000 0.100006
													}
												}
											}
										}
									}
									JOINT RightHandIndex1
									{
										OFFSET -0.086761 -2.345276 10.030899
										CHANNELS 6 Xposition Yposition Zposition Zrotation Yrotation Xrotation
										JOINT RightHandIndex2
										{
											OFFSET 0.000000 0.000000 4.061096
											CHANNELS 6 Xposition Yposition Zposition Zrotation Yrotation Xrotation
											JOINT RightHandIndex3
											{
												OFFSET 0.000000 0.000000 3.248871
												CHANNELS 6 Xposition Yposition Zposition Zrotation Yrotation Xrotation
												JOINT RightHandIndex4
												{
													OFFSET 0.000000 0.000000 2.639709
													CHANNELS 6 Xposition Yposition Zposition Zrotation Yrotation Xrotation
													End Site
													{
														OFFSET 0.000000 0.000000 0.100006
													}
												}
											}
										}
									}
									JOINT RightHandMiddle1
									{
										OFFSET 0.104095 -0.006775 9.502945
										CHANNELS 6 Xposition Yposition Zposition Zrotation Yrotation Xrotation
										JOINT RightHandMiddle2
										{
											OFFSET 0.000000 0.000000 4.568726
											CHANNELS 6 Xposition Yposition Zposition Zrotation Yrotation Xrotation
											JOINT RightHandMiddle3
											{
												OFFSET 0.000000 0.000000 3.654984
												CHANNELS 6 Xposition Yposition Zposition Zrotation Yrotation Xrotation
												JOINT RightHandMiddle4
												{
													OFFSET 0.000000 0.000000 2.741241
													CHANNELS 6 Xposition Yposition Zposition Zrotation Yrotation Xrotation
													End Site
													{
														OFFSET 0.000000 0.000000 0.100006
													}
												}
											}
										}
									}
									JOINT RightHandRing1
									{
										OFFSET 0.086761 2.267456 8.921707
										CHANNELS 6 Xposition Yposition Zposition Zrotation Yrotation Xrotation
										JOINT RightHandRing2
										{
											OFFSET 0.000000 0.000000 4.061096
											CHANNELS 6 Xposition Yposition Zposition Zrotation Yrotation Xrotation
											JOINT RightHandRing3
											{
												OFFSET 0.000000 0.000000 3.654984
												CHANNELS 6 Xposition Yposition Zposition Zrotation Yrotation Xrotation
												JOINT RightHandRing4
												{
													OFFSET 0.000000 0.000000 2.741241
													CHANNELS 6 Xposition Yposition Zposition Zrotation Yrotation Xrotation
													End Site
													{
														OFFSET 0.000000 0.000000 0.100006
													}
												}
											}
										}
									}
									JOINT RightHandPinky1
									{
										OFFSET -0.173492 4.467224 7.976990
										CHANNELS 6 Xposition Yposition Zposition Zrotation Yrotation Xrotation
										JOINT RightHandPinky2
										{
											OFFSET 0.000000 0.000000 3.350403
											CHANNELS 6 Xposition Yposition Zposition Zrotation Yrotation Xrotation
											JOINT RightHandPinky3
											{
												OFFSET 0.000000 0.000000 2.842758
												CHANNELS 6 Xposition Yposition Zposition Zrotation Yrotation Xrotation
												JOINT RightHandPinky4
												{
													OFFSET 0.000000 0.000000 2.639709
													CHANNELS 6 Xposition Yposition Zposition Zrotation Yrotation Xrotation
													End Site
													{
														OFFSET 0.000000 0.000000 0.100006
													}
												}
											}
										}
									}
									JOINT RightForeArmEnd
									{
										OFFSET 0.000000 0.000000 0.000000
										CHANNELS 6 Xposition Yposition Zposition Zrotation Yrotation Xrotation
										End Site
										{
											OFFSET 0.000000 0.000000 0.100006
										}
									}
								}
								JOINT RightArmEnd
								{
									OFFSET 0.000000 0.000000 0.000000
									CHANNELS 6 Xposition Yposition Zposition Zrotation Yrotation Xrotation
									End Site
									{
										OFFSET 0.000000 0.000000 0.100006
									}
								}
							}
						}
					}
					JOINT LeftShoulder
					{
						OFFSET 2.625397 0.000000 11.175217
						CHANNELS 6 Xposition Yposition Zposition Zrotation Yrotation Xrotation
						JOINT LeftArm
						{
							OFFSET 0.000000 0.000000 10.813629
							CHANNELS 6 Xposition Yposition Zposition Zrotation Yrotation Xrotation
							JOINT LeftForeArm
							{
								OFFSET 0.000000 0.000000 28.724777
								CHANNELS 6 Xposition Yposition Zposition Zrotation Yrotation Xrotation
								JOINT LeftHand
								{
									OFFSET 0.644379 0.328857 25.716171
									CHANNELS 6 Xposition Yposition Zposition Zrotation Yrotation Xrotation
									JOINT LeftHandThumb1
									{
										OFFSET 2.867310 -2.944275 3.959564
										CHANNELS 6 Xposition Yposition Zposition Zrotation Yrotation Xrotation
										JOINT LeftHandThumb2
										{
											OFFSET 0.000000 0.000000 3.350403
											CHANNELS 6 Xposition Yposition Zposition Zrotation Yrotation Xrotation
											JOINT LeftHandThumb3
											{
												OFFSET 0.000000 0.000000 3.756516
												CHANNELS 6 Xposition Yposition Zposition Zrotation Yrotation Xrotation
												JOINT LeftHandThumb4
												{
													OFFSET 0.000000 0.000000 3.100006
													CHANNELS 6 Xposition Yposition Zposition Zrotation Yrotation Xrotation
													End Site
													{
														OFFSET 0.000000 0.000000 0.100006
													}
												}
											}
										}
									}
									JOINT LeftHandIndex1
									{
										OFFSET 0.086761 -2.345276 10.030899
										CHANNELS 6 Xposition Yposition Zposition Zrotation Yrotation Xrotation
										JOINT LeftHandIndex2
										{
											OFFSET 0.000000 0.000000 4.061096
											CHANNELS 6 Xposition Yposition Zposition Zrotation Yrotation Xrotation
											JOINT LeftHandIndex3
											{
												OFFSET 0.000000 0.000000 3.248871
												CHANNELS 6 Xposition Yposition Zposition Zrotation Yrotation Xrotation
												JOINT LeftHandIndex4
												{
													OFFSET 0.000000 0.000000 2.639709
													CHANNELS 6 Xposition Yposition Zposition Zrotation Yrotation Xrotation
													End Site
													{
														OFFSET 0.000000 0.000000 0.100006
													}
												}
											}
										}
									}
									JOINT LeftHandMiddle1
									{
										OFFSET -0.104095 -0.006775 9.502945
										CHANNELS 6 Xposition Yposition Zposition Zrotation Yrotation Xrotation
										JOINT LeftHandMiddle2
										{
											OFFSET 0.000000 0.000000 4.568726
											CHANNELS 6 Xposition Yposition Zposition Zrotation Yrotation Xrotation
											JOINT LeftHandMiddle3
											{
												OFFSET 0.000000 0.000000 3.654984
												CHANNELS 6 Xposition Yposition Zposition Zrotation Yrotation Xrotation
												JOINT LeftHandMiddle4
												{
													OFFSET 0.000000 0.000000 2.741241
													CHANNELS 6 Xposition Yposition Zposition Zrotation Yrotation Xrotation
													End Site
													{
														OFFSET 0.000000 0.000000 0.100006
													}
												}
											}
										}
									}
									JOINT LeftHandRing1
									{
										OFFSET -0.086761 2.267456 8.921707
										CHANNELS 6 Xposition Yposition Zposition Zrotation Yrotation Xrotation
										JOINT LeftHandRing2
										{
											OFFSET 0.000000 0.000000 4.061096
											CHANNELS 6 Xposition Yposition Zposition Zrotation Yrotation Xrotation
											JOINT LeftHandRing3
											{
												OFFSET 0.000000 0.000000 3.654984
												CHANNELS 6 Xposition Yposition Zposition Zrotation Yrotation Xrotation
												JOINT LeftHandRing4
												{
													OFFSET 0.000000 0.000000 2.741241
													CHANNELS 6 Xposition Yposition Zposition Zrotation Yrotation Xrotation
													End Site
													{
														OFFSET 0.000000 0.000000 0.100006
													}
												}
											}
										}
									}
									JOINT LeftHandPinky1
									{
										OFFSET 0.173492 4.467224 7.976990
										CHANNELS 6 Xposition Yposition Zposition Zrotation Yrotation Xrotation
										JOINT LeftHandPinky2
										{
											OFFSET 0.000000 0.000000 3.350403
											CHANNELS 6 Xposition Yposition Zposition Zrotation Yrotation Xrotation
											JOINT LeftHandPinky3
											{
												OFFSET 0.000000 0.000000 2.842758
												CHANNELS 6 Xposition Yposition Zposition Zrotation Yrotation Xrotation
												JOINT LeftHandPinky4
												{
													OFFSET 0.000000 0.000000 2.639709
													CHANNELS 6 Xposition Yposition Zposition Zrotation Yrotation Xrotation
													End Site
													{
														OFFSET 0.000000 0.000000 0.100006
													}
												}
											}
										}
									}
									JOINT LeftForeArmEnd
									{
										OFFSET 0.000000 0.000000 0.000000
										CHANNELS 6 Xposition Yposition Zposition Zrotation Yrotation Xrotation
										End Site
										{
											OFFSET 0.000000 0.000000 0.100006
										}
									}
								}
								JOINT LeftArmEnd
								{
									OFFSET 0.000000 0.000000 0.000000
									CHANNELS 6 Xposition Yposition Zposition Zrotation Yrotation Xrotation
									End Site
									{
										OFFSET 0.000000 0.000000 0.100006
									}
								}
							}
						}
					}
				}
			}
		}
	}
	JOINT RightUpLeg
	{
		OFFSET -11.289948 0.000000 0.000000
		CHANNELS 6 Xposition Yposition Zposition Zrotation Yrotation Xrotation
		JOINT RightLeg
		{
			OFFSET 0.000000 0.000000 -38.200329
			CHANNELS 6 Xposition Yposition Zposition Zrotation Yrotation Xrotation
			JOINT RightFoot
			{
				OFFSET 0.000000 0.000000 -39.900856
				CHANNELS 6 Xposition Yposition Zposition Zrotation Yrotation Xrotation
				JOINT RightToeBase
				{
					OFFSET 0.000000 -15.261658 0.000001
					CHANNELS 6 Xposition Yposition Zposition Zrotation Yrotation Xrotation
					JOINT RightToeBaseEnd
					{
						OFFSET 0.000000 -7.370728 0.000001
						CHANNELS 6 Xposition Yposition Zposition Zrotation Yrotation Xrotation
						End Site
						{
							OFFSET 0.000000 0.000000 0.100000
						}
					}
				}
				JOINT RightLegEnd
				{
					OFFSET 0.000000 0.000000 0.000000
					CHANNELS 6 Xposition Yposition Zposition Zrotation Yrotation Xrotation
					End Site
					{
						OFFSET 0.000000 0.000000 0.100000
					}
				}
			}
			JOINT RightUpLegEnd
			{
				OFFSET 0.000000 0.000000 0.000000
				CHANNELS 6 Xposition Yposition Zposition Zrotation Yrotation Xrotation
				End Site
				{
					OFFSET 0.000000 0.000000 0.099998
				}
			}
		}
	}
	JOINT LeftUpLeg
	{
		OFFSET 11.315674 0.000000 0.000000
		CHANNELS 6 Xposition Yposition Zposition Zrotation Yrotation Xrotation
		JOINT LeftLeg
		{
			OFFSET 0.000000 0.000000 -38.200329
			CHANNELS 6 Xposition Yposition Zposition Zrotation Yrotation Xrotation
			JOINT LeftFoot
			{
				OFFSET 0.000000 0.000000 -39.900856
				CHANNELS 6 Xposition Yposition Zposition Zrotation Yrotation Xrotation
				JOINT LeftToeBase
				{
					OFFSET 0.000000 -15.261658 0.000001
					CHANNELS 6 Xposition Yposition Zposition Zrotation Yrotation Xrotation
					JOINT LeftToeBaseEnd
					{
						OFFSET 0.000000 -7.539978 0.000001
						CHANNELS 6 Xposition Yposition Zposition Zrotation Yrotation Xrotation
						End Site
						{
							OFFSET 0.000000 0.000000 0.100000
						}
					}
				}
				JOINT LeftLegEnd
				{
					OFFSET 0.000000 0.000000 0.000000
					CHANNELS 6 Xposition Yposition Zposition Zrotation Yrotation Xrotation
					End Site
					{
						OFFSET 0.000000 0.000000 0.100000
					}
				}
			}
			JOINT LeftUpLegEnd
			{
				OFFSET 0.000000 0.000000 0.000000
				CHANNELS 6 Xposition Yposition Zposition Zrotation Yrotation Xrotation
				End Site
				{
					OFFSET 0.000000 0.000000 0.099998
				}
			}
		}
	}
}
MOTION
Frames: 2
Frame Time: 0.016667
36.912598 -67.650757 88.442726 -30.644737 -7.190258 -8.366812 -0.000005 2.080064 8.814246 0.108812 0.437655 6.260190 0.000002 -0.000030 8.844149 0.158474 -0.890444 2.784015 -0.000028 0.000014 11.682278 5.000259 1.114097 5.400981 0.000020 -0.000019 11.746716 1.877847 2.430100 4.718097 0.000000 0.000030 17.658298 5.654697 20.337353 -1.315216 0.000000 0.000027 5.101494 -1.980508 2.720510 -6.765141 -0.000001 0.000030 5.101538 -0.038533 1.318224 -12.418324 0.000021 -0.000061 11.655078 0.000000 -0.000001 -0.000000 -2.625423 0.000014 11.175213 9.884906 -84.119339 0.495667 -0.000041 0.000013 10.434727 -62.509133 -50.765688 68.793057 -0.000003 -0.000008 29.628407 8.830734 -0.079399 34.271693 0.000017 -0.000111 22.857586 6.743313 5.533479 -12.041039 -2.867310 -2.944290 3.959587 31.644693 -17.093745 51.773025 0.000004 0.000015 3.350414 -12.293571 8.271521 -22.243863 0.000000 -0.000008 3.756527 -8.189143 6.261726 -15.233327 0.000001 0.000002 3.147341 -0.000000 0.000000 -0.000003 -0.086765 -2.345268 10.030892 6.292036 -13.944383 0.856877 0.000013 -0.000021 4.061087 -0.385187 -9.618177 -1.364714 0.000007 0.000013 3.248875 0.114817 -9.618156 -1.364709 -0.000011 0.000005 2.639691 -0.000000 -0.000002 -0.000001 0.104099 -0.006772 9.502956 0.655888 -16.571881 0.611219 0.000005 0.000015 4.568727 -0.436076 -11.719076 -0.622891 -0.000011 0.000028 3.655007 0.063920 -11.719060 -0.622898 -0.000010 -0.000070 2.741249 0.000001 0.000001 0.000000 0.086769 2.267486 8.921715 -10.415685 -27.534740 5.197574 -0.000007 0.000017 4.061102 0.780145 -19.784297 1.260669 0.000006 0.000007 3.655004 -0.219856 -19.784358 1.260661 0.000003 -0.000002 2.741239 -0.000001 -0.000004 0.000003 -0.173492 4.467211 7.976997 -23.722101 -35.460529 12.789155 0.000021 -0.000012 3.350437 0.737834 -26.050048 5.452236 -0.000011 -0.000061 2.842785 -1.262161 -26.050061 5.452225 0.000013 -0.000006 2.639710 0.000001 0.000000 -0.000000 -0.000001 0.000011 -0.000004 -0.000001 0.000000 0.000003 0.000001 -0.000002 0.000011 0.000000 0.000000 0.000001 2.625402 -0.000025 11.175234 -9.475487 86.244075 -0.191795 0.000031 0.000001 10.813641 56.429715 57.278079 48.796459 0.000019 -0.000015 28.724720 -21.588275 -0.549609 58.934021 0.644341 0.328838 25.716190 -43.738363 -14.829982 -5.442932 2.867317 -2.944290 3.959549 -32.365039 13.750580 57.171883 -0.000002 0.000021 3.350401 5.044779 -4.261321 -9.634882 -0.000029 0.000006 3.756504 3.426256 -3.050285 -6.647978 0.000010 -0.000002 3.100033 0.000000 0.000002 -0.000000 0.086754 -2.345257 10.030884 5.392423 -20.186219 14.434985 0.000012 0.000004 4.061091 -0.533688 0.000368 -0.000080 0.000014 -0.000031 3.248877 -0.030955 -0.000000 0.002549 0.000001 0.000066 2.639710 -0.000001 -0.000001 -0.000001 -0.104080 -0.006776 9.502937 1.498163 -11.896931 11.713961 0.000004 -0.000021 4.568718 -0.542263 0.034584 -0.000380 -0.000014 -0.000021 3.654998 -0.036376 -0.019267 -0.001551 0.000007 -0.000004 2.741262 0.000000 -0.000001 -0.000001 -0.086755 2.267431 8.921705 -4.043749 2.962491 6.487709 0.000036 -0.000075 4.061119 0.997339 1.734320 -0.106190 0.000005 -0.000017 3.655007 -0.002415 1.734857 -0.106363 0.000000 0.000007 2.741267 -0.000000 0.000000 -0.000004 0.173496 4.467206 7.976997 -10.949258 12.175765 -5.320931 0.000010 0.000016 3.350389 1.857675 9.110449 -1.786255 -0.000013 0.000013 2.842758 -0.142325 9.110469 -1.786264 -0.000004 0.000006 2.639704 -0.000000 0.000002 0.000003 0.000000 0.000007 0.000015 -0.000000 0.000000 -0.000002 0.000003 0.000000 0.000027 0.000000 0.000004 -0.000003 -11.289928 0.000018 0.000006 18.893657 1.035078 -4.141568 0.000012 0.000057 -38.200302 0.093450 -0.051775 28.989478 -0.000005 0.000059 -39.900848 -3.854682 6.018127 12.290615 0.000002 -15.261637 0.000004 -0.372707 0.475382 -21.884350 -0.000003 -7.370670 0.000001 0.000001 0.000000 0.000000 0.000001 0.000058 -0.000005 0.000001 0.000000 0.000001 -0.000003 -0.000001 -0.000000 0.000000 -0.000000 0.000001 11.315688 0.000071 0.000007 1.566884 1.067012 -10.152572 -0.000023 0.000055 -38.200287 -0.217496 0.231065 46.732554 -0.000012 0.000039 -39.900898 14.723229 -0.539071 36.037348 0.000014 -15.261706 0.000013 -1.312704 4.183963 -38.933147 -0.000008 -7.539919 0.000002 0.000000 -0.000001 0.000000 -0.000002 -0.000001 0.000008 0.000000 -0.000001 -0.000003 -0.000018 0.000114 0.000004 0.000001 -0.000001 -0.000000 
36.868011 -67.667175 88.222321 -29.562592 -7.288409 -8.857972 -0.000010 2.080049 8.814247 0.106038 0.467068 6.545537 0.000022 0.000027 8.844147 0.145605 -0.942495 2.915272 -0.000010 -0.000013 11.682267 4.846242 1.169484 5.750042 0.000021 0.000021 11.746686 1.826881 2.695638 5.000463 -0.000004 -0.000022 17.658289 5.021216 20.357478 -1.953922 -0.000029 -0.000010 5.101559 -2.500902 2.879723 -7.045055 -0.000010 -0.000053 5.101541 -0.083147 1.324629 -12.255988 0.000007 0.000003 11.655064 0.000000 0.000000 0.000000 -2.625404 0.000009 11.175234 10.019784 -84.351429 0.424945 -0.000036 0.000006 10.434700 -62.125557 -50.846776 68.307779 0.000010 0.000004 29.628481 7.557915 -0.012600 27.236549 -0.000043 -0.000031 22.857601 14.172510 1.827913 -11.182866 -2.867306 -2.944275 3.959564 31.800329 -16.060377 53.378212 0.000008 -0.000023 3.350410 -10.021663 7.236970 -18.397943 0.000010 -0.000015 3.756504 -6.707786 5.373674 -12.625572 -0.000002 0.000001 3.147343 0.000001 0.000000 0.000000 -0.086752 -2.345270 10.030903 7.736807 -5.015828 4.356510 0.000009 -0.000010 4.061109 -0.488659 -3.038772 -0.427511 0.000001 0.000002 3.248893 0.011347 -3.039075 -0.427597 0.000002 0.000002 2.639715 0.000000 0.000001 0.000000 0.104099 -0.006787 9.502956 2.303717 -7.038995 2.446391 -0.000004 0.000005 4.568747 -0.489072 -4.881486 -0.256448 0.000001 -0.000024 3.655002 0.010936 -4.881480 -0.256447 -0.000004 -0.000059 2.741251 -0.000000 0.000000 0.000001 0.086765 2.267461 8.921711 -7.531232 -15.637179 2.659234 0.000007 0.000023 4.061081 0.931826 -11.211366 0.694620 -0.000007 -0.000068 3.654970 -0.068192 -11.211376 0.694618 0.000004 0.000004 2.741257 -0.000000 0.000001 -0.000000 -0.173485 4.467227 7.976978 -18.557703 -23.108856 4.651670 0.000000 0.000004 3.350405 1.525880 -16.423127 3.284537 -0.000006 -0.000023 2.842777 -0.474108 -16.423116 3.284528 0.000044 0.000005 2.639697 -0.000001 0.000001 -0.000000 0.000004 0.000002 0.000008 0.000000 0.000000 0.000001 -0.000020 -0.000017 0.000017 0.000002 -0.000001 -0.000001 2.625383 -0.000008 11.175229 -10.195125 87.221126 -0.256258 0.000000 -0.000014 10.813652 53.517394 55.328514 48.243843 -0.000011 -0.000015 28.724733 -21.443183 -0.483767 58.007021 0.644376 0.328888 25.716175 -48.473955 -12.526293 -6.343408 2.867302 -2.944290 3.959564 -32.415996 13.591529 57.445607 -0.000040 0.000011 3.350424 4.708394 -4.020499 -9.020706 0.000003 0.000078 3.756531 3.201716 -2.871463 -6.226865 0.000011 0.000001 3.100000 -0.000000 0.000003 -0.000001 0.086754 -2.345278 10.030899 5.261165 -21.189070 13.714657 -0.000011 -0.000010 4.061098 -0.534728 0.000528 -0.000090 -0.000005 -0.000010 3.248872 -0.031900 -0.000001 0.002526 -0.000015 -0.000004 2.639740 0.000002 -0.000001 -0.000003 -0.104107 -0.006780 9.502953 1.547019 -11.625072 10.794885 -0.000013 -0.000009 4.568728 -0.543472 -0.000002 -0.000055 0.000002 -0.000056 3.654999 -0.037822 0.000007 -0.001661 -0.000001 -0.000001 2.741253 0.000000 -0.000001 -0.000003 -0.086740 2.267447 8.921711 -3.517974 5.997597 5.335410 -0.000014 0.000057 4.061125 0.991674 3.945692 -0.241715 0.000002 0.000004 3.654989 -0.008320 3.945693 -0.241705 0.000005 -0.000004 2.741261 0.000000 -0.000000 0.000002 0.173477 4.467205 7.976990 -10.222649 16.822368 -8.300870 -0.000013 0.000010 3.350410 1.719072 12.732939 -2.517408 0.000009 -0.000021 2.842793 -0.280929 12.732953 -2.517413 -0.000015 -0.000049 2.639731 -0.000001 -0.000004 -0.000000 0.000003 -0.000000 0.000027 -0.000000 0.000000 -0.000004 -0.000008 0.000002 0.000023 -0.000003 0.000000 -0.000001 -11.289975 0.000010 0.000009 18.038268 1.047598 -4.145460 0.000008 0.000046 -38.200336 0.109224 -0.063482 30.165831 0.000017 0.000079 -39.900848 -4.164494 5.974863 11.446504 0.000002 -15.261647 0.000020 -0.343037 0.481758 -21.589658 -0.000008 -7.370675 0.000001 0.000001 0.000000 -0.000000 0.000014 0.000064 0.000001 -0.000001 0.000000 0.000000 0.000003 -0.000002 -0.000001 0.000000 -0.000001 -0.000001 11.315647 -0.000013 0.000009 1.717412 0.945988 -10.509316 -0.000004 0.000075 -38.200268 -0.113985 0.126405 47.959727 0.000016 0.000040 -39.900875 13.912469 0.350623 35.338770 -0.000015 -15.261659 0.000003 -1.300143 3.901680 -36.848597 0.000004 -7.539980 0.000004 0.000000 -0.000000 -0.000001 -0.000002 0.000003 0.000009 -0.000000 -0.000003 -0.000001 -0.000012 0.000065 -0.000011 -0.000001 -0.000003 0.000000 
